<?xml version="1.0" encoding="UTF-8" standalone="no"?>
<svg
   xmlns:dc="http://purl.org/dc/elements/1.1/"
   xmlns:cc="http://creativecommons.org/ns#"
   xmlns:rdf="http://www.w3.org/1999/02/22-rdf-syntax-ns#"
   xmlns:svg="http://www.w3.org/2000/svg"
   xmlns="http://www.w3.org/2000/svg"
   viewBox="0 0 1250 1250"
   height="1250"
   width="1250"
   xml:space="preserve"
   version="1.1"
   id="svg2"><metadata
     id="metadata8"><rdf:RDF><cc:Work
         rdf:about=""><dc:format>image/svg+xml</dc:format><dc:type
           rdf:resource="http://purl.org/dc/dcmitype/StillImage" /></cc:Work></rdf:RDF></metadata><defs
     id="defs6"><clipPath
       id="clipPath20"
       clipPathUnits="userSpaceOnUse"><path
         id="path22"
         d="m 0,1000 1000,0 L 1000,0 0,0 0,1000 Z" /></clipPath><clipPath
       id="clipPath28"
       clipPathUnits="userSpaceOnUse"><path
         id="path30"
         d="m 530.955,571.788 84.756,0 0,-115.576 -84.756,0 0,115.576 z" /></clipPath><clipPath
       id="clipPath44"
       clipPathUnits="userSpaceOnUse"><path
         id="path46"
         d="m 579.289,571.788 84.756,0 0,-115.576 -84.756,0 0,115.576 z" /></clipPath><clipPath
       id="clipPath64"
       clipPathUnits="userSpaceOnUse"><path
         id="path66"
         d="m 0,1000 1000,0 L 1000,0 0,0 0,1000 Z" /></clipPath><clipPath
       id="clipPath72"
       clipPathUnits="userSpaceOnUse"><path
         id="path74"
         d="m 377.455,571.788 84.756,0 0,-115.576 -84.756,0 0,115.576 z" /></clipPath><clipPath
       id="clipPath88"
       clipPathUnits="userSpaceOnUse"><path
         id="path90"
         d="m 329.122,571.788 84.756,0 0,-115.576 -84.756,0 0,115.576 z" /></clipPath></defs><g
     transform="matrix(1.25,0,0,-1.25,0,1250)"
     id="g10"><g
       transform="translate(480.9551,456.2119)"
       id="g12"><path
         id="path14"
         style="fill:#333333;fill-opacity:1;fill-rule:nonzero;stroke:none"
         d="m 0,0 38.525,0 46.231,115.576 -38.526,0 L 0,0 Z" /></g><g
       id="g16"><g
         clip-path="url(#clipPath20)"
         id="g18"><g
           id="g24"><g
             id="g26" /><g
             id="g32"><g
               style="opacity:0.5"
               id="g34"
               clip-path="url(#clipPath28)"><g
                 id="g36"
                 transform="translate(530.9551,456.2119)"><path
                   id="path38"
                   style="fill:#333333;fill-opacity:1;fill-rule:nonzero;stroke:none"
                   d="m 0,0 38.525,0 46.231,115.576 -38.526,0 L 0,0 Z" /></g></g></g></g><g
           id="g40"><g
             id="g42" /><g
             id="g48"><g
               style="opacity:0.19999701"
               id="g50"
               clip-path="url(#clipPath44)"><g
                 id="g52"
                 transform="translate(579.2891,456.2119)"><path
                   id="path54"
                   style="fill:#333333;fill-opacity:1;fill-rule:nonzero;stroke:none"
                   d="m 0,0 38.525,0 46.231,115.576 -38.526,0 L 0,0 Z" /></g></g></g></g></g></g><g
       transform="translate(512.2109,456.2119)"
       id="g56"><path
         id="path58"
         style="fill:#333333;fill-opacity:1;fill-rule:nonzero;stroke:none"
         d="m 0,0 -38.525,0 -46.231,115.576 38.526,0 L 0,0 Z" /></g><g
       id="g60"><g
         clip-path="url(#clipPath64)"
         id="g62"><g
           id="g68"><g
             id="g70" /><g
             id="g76"><g
               style="opacity:0.5"
               id="g78"
               clip-path="url(#clipPath72)"><g
                 id="g80"
                 transform="translate(462.2114,456.2119)"><path
                   id="path82"
                   style="fill:#333333;fill-opacity:1;fill-rule:nonzero;stroke:none"
                   d="m 0,0 -38.525,0 -46.231,115.576 38.526,0 L 0,0 Z" /></g></g></g></g><g
           id="g84"><g
             id="g86" /><g
             id="g92"><g
               style="opacity:0.19999701"
               id="g94"
               clip-path="url(#clipPath88)"><g
                 id="g96"
                 transform="translate(413.8779,456.2119)"><path
                   id="path98"
                   style="fill:#333333;fill-opacity:1;fill-rule:nonzero;stroke:none"
                   d="m 0,0 -38.525,0 -46.231,115.576 38.526,0 L 0,0 Z" /></g></g></g></g></g></g><text
       id="text100"
       style="font-variant:normal;font-weight:bold;font-stretch:normal;font-size:50px;font-family:'TT Norms Black';-inkscape-font-specification:TTNorms-Black;writing-mode:lr-tb;fill:#333333;fill-opacity:1;fill-rule:nonzero;stroke:none"
       transform="matrix(1,0,0,-1,388.0928,398.9912)"><tspan
         id="tspan102"
         y="0"
         x="0 48.044998 89.745003 136.285 184.345">VYADD</tspan></text>
</g></svg>